<?xml version="1.0" standalone="no"?>
<!DOCTYPE svg PUBLIC "-//W3C//DTD SVG 20010904//EN"
 "http://www.w3.org/TR/2001/REC-SVG-20010904/DTD/svg10.dtd">
<svg version="1.0" xmlns="http://www.w3.org/2000/svg"
 width="417.000000pt" height="289.000000pt" viewBox="0 0 417.000000 289.000000"
 preserveAspectRatio="xMidYMid meet">

<g transform="translate(0.000000,289.000000) scale(0.100000,-0.100000)"
fill="#000000" stroke="none">
<path d="M2036 2859 c9 -19 48 -89 85 -156 38 -68 69 -127 69 -133 0 -6 -28
-10 -63 -10 -57 0 -65 2 -75 24 -9 21 -15 23 -64 19 -71 -6 -76 -8 -80 -35 -3
-20 -10 -24 -63 -30 -33 -3 -62 -4 -65 -2 -2 3 21 81 52 174 53 160 55 170 35
166 -12 -3 -47 -8 -77 -11 -404 -45 -836 -249 -1109 -526 -154 -155 -279 -358
-331 -537 l-24 -82 -160 0 -161 0 88 -88 c48 -48 87 -92 87 -97 -1 -6 -36 -50
-80 -100 -94 -107 -98 -103 95 -104 l130 -1 12 -72 c69 -431 405 -840 873
-1062 292 -138 571 -193 929 -183 240 6 392 33 601 104 572 196 1019 654 1090
1118 7 44 14 86 16 94 4 12 31 13 161 7 150 -7 156 -6 142 11 -8 10 -47 55
-87 99 -40 45 -72 85 -72 90 0 5 39 48 87 96 l88 88 -162 0 -161 0 -21 68
c-56 185 -183 385 -351 552 -139 139 -260 227 -440 319 -120 61 -337 148 -347
138 -2 -2 -23 -73 -47 -156 -24 -84 -46 -154 -48 -157 -7 -6 -118 18 -118 26
0 3 7 30 15 58 9 29 14 56 11 61 -5 7 -75 22 -103 22 -4 0 -15 -26 -24 -58 -8
-32 -20 -58 -25 -58 -29 1 -104 17 -108 24 -3 4 14 75 38 159 37 132 41 152
27 156 -9 3 -76 8 -149 11 l-134 7 18 -33z m-355 -192 l68 -147 -37 -15 c-79
-34 -80 -33 -109 33 l-27 60 -45 -16 c-25 -8 -50 -18 -54 -22 -4 -4 3 -33 18
-65 14 -32 24 -59 23 -60 -15 -12 -112 -35 -117 -29 -12 14 -131 279 -131 291
0 10 79 43 102 43 4 0 19 -22 33 -50 l25 -49 42 15 c24 8 49 16 56 19 9 3 6
18 -13 56 -15 28 -25 52 -23 53 16 11 87 34 102 33 14 -2 36 -40 87 -150z
m1267 7 c2 -1 -25 -45 -60 -96 -36 -51 -68 -98 -71 -104 -4 -7 21 -26 66 -49
39 -21 74 -39 76 -41 5 -4 -39 -74 -47 -74 -3 0 -41 18 -84 41 -43 22 -78 38
-78 35 0 -3 21 -17 48 -30 26 -13 83 -50 127 -81 56 -40 71 -48 50 -26 -25 27
-27 33 -15 45 8 7 58 51 110 96 52 46 105 92 117 103 l22 20 65 -56 c35 -31
86 -77 112 -101 l49 -44 -24 -26 c-14 -14 -28 -26 -32 -26 -4 0 -38 27 -76 60
-61 53 -70 58 -83 44 -13 -14 -8 -22 48 -73 l63 -57 -24 -22 c-13 -12 -29 -22
-35 -22 -7 0 -37 23 -67 50 -30 28 -59 50 -64 50 -4 0 -16 -8 -25 -19 -16 -18
-15 -20 16 -46 18 -15 50 -43 71 -62 l38 -33 -28 -25 c-15 -13 -33 -25 -38
-25 -6 0 -42 28 -80 62 l-70 63 87 -92 c94 -100 179 -221 227 -323 l31 -65
-156 -3 c-86 -1 -158 -1 -160 0 -1 2 14 37 34 78 63 126 46 188 -66 240 -50
24 -171 56 -251 66 -45 6 -62 15 -110 56 -31 28 -67 56 -81 63 -15 8 -85 16
-175 20 -184 9 -235 0 -360 -67 -49 -26 -133 -69 -185 -96 l-95 -47 -217 0
c-120 0 -218 0 -218 -1 0 0 22 -16 50 -35 70 -48 71 -59 7 -59 l-52 -1 35 -27
c56 -43 92 -81 86 -91 -3 -5 -33 -12 -66 -16 l-61 -7 35 -27 c68 -51 71 -51
-264 -51 -171 0 -310 4 -310 9 0 33 129 257 159 275 18 12 12 33 -11 39 -24 7
-47 -9 -80 -56 -19 -26 -19 -29 -4 -46 22 -24 20 -30 -20 -75 -41 -47 -26 -59
-158 122 -106 146 -103 131 -45 200 l27 31 186 -43 c103 -24 190 -46 193 -50
3 -3 -2 -16 -13 -28 -10 -13 8 1 41 31 84 76 96 89 49 53 -23 -18 -46 -32 -50
-31 -15 2 -229 234 -229 248 0 7 19 27 43 44 l43 31 38 -44 38 -44 6 48 c4 27
7 61 7 77 0 22 12 37 59 73 55 43 74 49 66 23 -2 -7 -6 -44 -10 -82 l-6 -70
126 -35 c69 -19 125 -38 125 -41 0 -4 -24 -25 -53 -46 l-53 -40 -76 27 -77 27
-6 -28 c-5 -22 0 -37 25 -67 l31 -39 82 54 c411 276 982 342 1402 162 98 -42
106 -44 60 -15 -22 14 -44 27 -49 29 -5 1 35 67 89 145 l97 141 51 -26 c29
-14 54 -27 55 -29z m-648 -453 c-16 -30 -12 -43 23 -85 28 -33 35 -37 40 -22
4 9 3 15 -1 13 -4 -3 -7 8 -8 24 -1 29 -1 29 14 8 8 -12 16 -31 18 -43 12 -90
12 -87 -5 -74 -9 7 -22 19 -30 28 -15 16 -15 16 5 -35 5 -13 -6 -7 -30 18 -45
45 -57 47 -49 5 5 -26 4 -30 -10 -25 -26 10 -21 -20 8 -48 34 -35 58 -34 45 1
-12 30 -7 30 63 0 l37 -16 0 84 c0 88 -8 134 -19 104 -4 -12 -13 -4 -33 28
l-27 44 95 0 c111 0 135 -9 213 -77 51 -45 60 -48 165 -69 143 -29 223 -59
265 -101 31 -31 33 -38 28 -79 -6 -57 -10 -61 -37 -36 -38 36 -276 87 -368 80
l-44 -3 23 -29 c28 -35 20 -52 -42 -84 l-44 -24 55 6 c30 3 73 8 95 11 37 5
35 4 -20 -18 -33 -13 -88 -38 -122 -56 -50 -25 -75 -31 -123 -31 -34 0 -59 4
-56 9 3 5 -1 14 -9 21 -10 9 -12 16 -6 24 7 9 1 17 -20 30 -41 24 -32 39 32
50 56 10 69 19 69 49 0 24 -60 23 -87 -3 -18 -16 -23 -17 -33 -6 -8 11 -8 15
2 19 7 2 1 4 -13 3 -18 -1 -25 -5 -21 -15 3 -8 -10 -4 -31 10 -19 13 -31 27
-25 30 5 3 -2 16 -18 28 -32 25 -45 20 -19 -9 24 -27 9 -25 -42 5 -29 16 -43
20 -43 11 0 -7 31 -30 70 -51 38 -21 67 -43 63 -48 -3 -6 -1 -7 5 -3 7 4 20 2
29 -3 16 -9 16 -10 -4 -11 -31 0 -29 -16 4 -37 l26 -17 -24 -7 c-23 -6 -22 -7
11 -17 32 -10 33 -11 13 -17 -13 -4 -20 -11 -17 -17 3 -5 14 -6 24 -3 10 3 21
2 24 -3 9 -15 -39 -20 -52 -5 -7 7 -22 13 -33 13 -11 0 -18 4 -15 9 3 5 -3 11
-14 14 -11 3 -20 1 -20 -4 0 -5 -8 -10 -17 -10 -10 -1 -3 -4 15 -8 18 -3 34
-10 35 -16 1 -7 -146 -11 -421 -13 l-422 -2 -34 34 -34 34 30 6 c17 3 41 6 54
6 38 0 29 29 -22 76 l-45 43 28 3 c42 5 42 36 2 70 l-34 27 182 1 c213 0 239
7 415 108 127 73 220 108 296 111 29 1 32 -1 22 -18z m1260 -48 c14 -21 28
-43 32 -48 4 -7 -39 -36 -108 -74 -63 -34 -114 -65 -114 -68 0 -3 20 -34 45
-69 l46 -64 -33 -20 c-18 -11 -38 -20 -45 -20 -14 0 -155 195 -157 216 -1 9
61 49 149 99 83 46 152 84 155 84 3 0 16 -16 30 -36z m-2956 -320 c92 -26 170
-53 173 -59 2 -6 -2 -28 -11 -47 l-14 -35 -99 29 c-54 16 -102 29 -108 29 -5
0 31 -23 80 -51 50 -27 93 -53 97 -57 4 -4 2 -25 -4 -46 l-12 -39 -121 6 -120
6 105 -30 c58 -17 107 -33 108 -34 6 -6 -19 -74 -29 -80 -15 -10 -349 89 -349
102 0 7 9 37 21 68 l20 55 102 0 102 0 -80 47 c-44 25 -82 47 -84 49 -4 4 42
134 49 134 3 0 81 -21 174 -47z m3199 -136 c22 -72 36 -132 31 -136 -5 -5 -24
-11 -41 -14 l-33 -6 -25 83 c-24 76 -28 83 -50 78 -25 -4 -26 4 8 -109 16 -52
16 -53 -6 -58 -61 -13 -60 -14 -82 60 -18 58 -25 71 -44 73 -39 6 -41 -10 -16
-93 14 -44 25 -81 25 -82 0 -5 -82 -24 -87 -20 -8 9 -84 269 -79 274 9 9 320
82 341 80 16 -2 26 -26 58 -130z m-824 95 c21 -16 33 -74 18 -88 -8 -8 -427
-19 -427 -11 0 11 97 56 187 87 104 35 189 40 222 12z m-2053 -170 c6 -4 16
-16 22 -27 11 -19 11 -18 12 8 l0 27 80 0 c78 0 80 -1 80 -25 l0 -24 25 24
c41 42 105 32 133 -20 10 -18 11 -17 12 13 0 29 3 32 30 32 l29 0 3 -92 c3
-85 5 -93 23 -93 18 0 20 8 23 92 l3 91 99 1 c87 1 103 -2 120 -19 20 -20 20
-20 20 0 0 19 7 20 140 20 l140 0 16 -37 17 -38 16 37 c14 33 21 38 49 38 17
0 32 -5 32 -10 0 -6 -16 -42 -35 -80 -25 -49 -35 -83 -35 -115 0 -43 -1 -45
-30 -45 -29 0 -30 1 -30 47 0 26 -8 67 -17 90 -16 38 -22 43 -50 43 l-33 0 0
-90 0 -90 -30 0 -30 0 0 90 c0 89 0 90 -25 90 -25 0 -25 -1 -25 -90 l0 -90
-64 0 -63 0 -19 48 -19 47 -5 -45 c-5 -42 -7 -45 -37 -48 -33 -3 -33 -3 -34
40 -1 42 -1 43 -10 12 -12 -43 -32 -57 -81 -57 -33 0 -47 6 -65 27 l-23 27
-24 -27 c-32 -38 -90 -38 -123 1 l-23 26 0 -25 c0 -26 -1 -26 -80 -26 -68 0
-80 3 -80 17 0 14 -2 14 -20 -2 -29 -27 -99 -24 -122 5 -10 12 -18 33 -18 46
0 20 5 24 29 24 20 0 30 -6 34 -20 6 -25 37 -26 37 -2 0 13 -13 24 -40 35 -59
23 -76 74 -39 121 15 20 29 26 57 26 20 0 42 -4 48 -8z m1326 -9 c9 -10 18
-25 21 -33 3 -8 6 0 6 17 l1 33 183 -1 184 -1 18 -77 19 -76 9 40 c5 22 13 57
18 78 l10 37 54 0 55 0 1 -62 c1 -56 2 -59 9 -25 15 80 94 115 147 65 l23 -21
0 21 c0 21 5 22 80 22 68 0 80 -3 80 -17 0 -15 1 -15 18 0 42 38 132 8 132
-43 0 -15 -7 -20 -29 -20 -16 0 -31 6 -35 15 -7 19 -26 20 -26 1 0 -8 12 -17
26 -20 38 -10 74 -50 74 -84 0 -36 -31 -78 -64 -86 -27 -7 -76 8 -88 27 -5 8
-8 6 -8 -5 0 -16 -11 -18 -80 -18 -76 0 -80 1 -80 22 l0 22 -15 -21 c-19 -27
-62 -35 -101 -18 -30 12 -49 43 -57 95 -2 14 -5 -3 -6 -37 -1 -63 -1 -63 -31
-63 l-30 0 -1 93 -1 92 -25 -93 -26 -93 -35 3 c-35 3 -35 4 -56 80 l-21 78
-16 -29 c-10 -16 -14 -33 -9 -38 4 -4 14 -27 23 -50 l17 -43 -35 0 c-33 0 -38
4 -58 48 l-22 47 -3 -47 -3 -48 -110 0 c-106 0 -109 1 -109 22 0 20 -1 20 -12
5 -29 -37 -102 -42 -132 -8 -8 9 -18 28 -21 44 -7 25 -5 27 23 27 19 0 35 -8
45 -22 12 -18 18 -20 28 -11 10 10 10 15 -1 28 -7 8 -18 15 -25 15 -7 0 -24 9
-39 21 -33 26 -36 79 -6 109 26 26 91 27 112 3z m-933 -311 c5 -9 12 -34 16
-55 8 -39 13 -42 75 -38 l35 3 -42 -30 c-22 -17 -44 -36 -48 -42 -3 -5 -30
-23 -58 -38 l-52 -27 49 -3 c46 -3 47 -4 31 -22 -24 -26 -13 -68 20 -76 l25
-6 -25 -30 c-49 -58 -81 -142 -100 -268 l-8 -45 70 90 c88 113 206 241 211
227 1 -5 -9 -36 -23 -68 l-25 -59 157 160 c87 88 203 202 258 253 l99 92 698
0 698 0 0 -23 c0 -45 -40 -182 -75 -255 -100 -212 -294 -401 -535 -522 -89
-45 -276 -104 -395 -126 -73 -13 -150 -18 -285 -18 -204 0 -293 13 -464 65
-411 126 -727 425 -826 781 -11 40 -20 76 -20 80 0 8 107 13 362 16 151 2 168
0 177 -16z m621 -1 c0 -5 -53 -57 -118 -114 -65 -58 -159 -148 -209 -201 -90
-96 -91 -96 -81 -56 6 23 8 44 4 47 -9 10 -126 -108 -199 -201 -70 -89 -83
-82 -47 24 23 68 68 140 101 164 21 14 21 15 -11 18 -55 5 -62 33 -23 87 l17
24 -39 -5 c-31 -3 -35 -2 -21 6 10 6 36 25 57 43 21 17 55 41 74 53 52 32 44
41 -30 34 -64 -7 -65 -6 -65 17 0 13 -3 34 -6 47 l-6 22 301 0 c178 0 301 -4
301 -9z m1620 -16 c0 -7 -7 -31 -15 -54 -8 -22 -11 -41 -6 -41 4 0 13 18 20
40 10 35 14 39 31 30 18 -10 18 -13 5 -51 -17 -48 -18 -59 -6 -59 4 0 14 20
21 45 13 48 21 53 40 30 9 -11 7 -30 -15 -95 -18 -54 -31 -78 -38 -73 -42 25
-117 87 -117 98 0 10 23 83 45 142 5 16 35 5 35 -12z m-2950 -92 c0 -8 -12
-31 -27 -51 -22 -28 -24 -34 -10 -29 58 22 63 20 76 -23 7 -23 11 -43 9 -44
-2 -1 -25 -20 -53 -42 -72 -58 -74 -59 -85 -29 -9 23 -7 30 15 47 31 24 27 32
-8 19 -20 -8 -27 -7 -31 5 -11 28 -6 47 21 83 l27 35 -36 -27 c-31 -24 -37
-25 -42 -11 -13 34 -3 51 56 97 l62 48 13 -32 c7 -17 13 -38 13 -46z m2873
-119 c21 -8 3 -60 -24 -67 -26 -7 -25 -47 2 -75 25 -28 39 -20 39 22 0 40 26
68 41 45 30 -47 -13 -142 -68 -147 -70 -7 -106 123 -55 196 23 32 37 37 65 26z
m-2749 -129 c16 -24 15 -30 -16 -130 -18 -58 -36 -105 -39 -105 -11 0 -34 53
-31 71 4 26 -16 59 -32 53 -7 -3 -21 7 -31 22 -14 22 -15 28 -4 35 8 4 39 24
69 43 30 20 58 36 61 36 4 0 14 -11 23 -25z m2678 -237 l-20 -21 -36 22 c-40
25 -43 23 -20 -21 12 -24 13 -36 5 -54 -6 -13 -14 -24 -19 -24 -4 0 -27 39
-50 87 l-43 86 20 20 c18 19 23 19 48 7 15 -8 32 -16 36 -18 4 -2 0 15 -9 37
-16 40 -16 43 2 62 19 21 19 20 63 -71 l44 -91 -21 -21z m-2590 115 c10 -9 18
-30 18 -50 0 -35 8 -41 28 -21 9 9 16 7 32 -7 27 -25 26 -30 -15 -55 -35 -21
-35 -22 -35 -93 l0 -70 -25 23 c-18 17 -25 34 -25 62 0 38 0 38 -23 23 -22
-14 -25 -13 -46 8 l-22 24 41 27 c39 26 40 27 40 86 0 33 3 60 7 60 3 0 15 -7
25 -17z m2392 -194 c57 -68 58 -71 40 -90 -10 -11 -24 -17 -32 -14 -21 8 -51
-13 -46 -33 3 -10 -5 -27 -19 -40 l-24 -23 -6 48 c-20 155 -20 183 -2 203 10
11 21 20 25 20 3 0 32 -32 64 -71z m-2220 32 c16 -17 15 -23 -16 -107 -33 -88
-50 -106 -71 -73 -8 12 -2 40 24 108 18 50 36 91 40 91 3 0 14 -8 23 -19z m95
-77 c21 -15 23 -22 18 -73 l-6 -56 21 48 c11 26 24 47 28 47 4 0 18 -8 31 -19
l23 -19 -24 -101 c-13 -55 -27 -101 -31 -101 -18 0 -31 33 -25 67 l5 38 -15
-33 c-21 -48 -47 -40 -55 18 -4 39 -6 41 -10 16 -4 -32 -16 -40 -37 -27 -11 6
-9 26 9 102 28 124 27 121 68 93z m1926 -152 c4 -10 10 -9 29 4 30 19 46 12
46 -20 0 -17 -13 -30 -51 -50 -28 -16 -53 -26 -56 -23 -2 3 -15 47 -29 99
l-24 93 23 19 22 18 18 -63 c10 -35 20 -70 22 -77z m-1722 36 c15 -12 15 -19
1 -87 -11 -49 -13 -76 -6 -83 18 -18 29 0 42 67 14 72 20 81 49 66 19 -10 19
-13 2 -90 -10 -44 -23 -87 -30 -95 -31 -37 -103 -6 -117 50 -4 14 -1 53 5 87
20 105 22 108 54 85z m1547 -81 c10 -48 15 -57 28 -52 43 18 49 17 56 -10 4
-15 6 -28 4 -29 -35 -18 -101 -46 -107 -46 -4 0 -16 39 -25 88 -10 48 -19 94
-22 103 -3 10 5 20 18 26 27 13 32 5 48 -80z m-125 21 c2 -13 11 -60 19 -106
l13 -84 -23 -10 c-13 -6 -26 -9 -27 -7 -2 2 -11 49 -20 104 -16 93 -15 101 0
113 24 17 32 15 38 -10z m-1205 -79 l6 -54 13 48 c13 47 14 48 45 41 17 -3 32
-7 33 -8 2 -2 -3 -51 -9 -110 -11 -99 -14 -107 -33 -104 -17 3 -20 10 -18 48
l1 45 -12 -38 c-6 -21 -15 -38 -19 -38 -4 1 -14 1 -22 1 -11 0 -15 14 -17 58
l-2 57 -3 -48 c-3 -31 -10 -50 -19 -54 -30 -11 -35 11 -24 108 15 123 13 119
47 110 25 -7 29 -12 33 -62z m1100 31 c0 -25 -4 -30 -35 -36 -21 -4 -35 -12
-35 -21 0 -8 6 -13 13 -10 50 19 57 18 57 -2 0 -12 1 -24 3 -28 1 -4 -13 -11
-30 -15 -19 -5 -33 -15 -33 -23 0 -12 8 -14 40 -9 38 6 40 5 40 -19 0 -23 -7
-28 -56 -43 -30 -9 -58 -13 -61 -10 -3 3 -11 51 -18 106 -10 84 -9 103 1 107
23 8 99 32 107 32 4 1 7 -12 7 -29z m-173 -42 c-3 -13 -11 -63 -18 -111 -11
-80 -15 -90 -37 -98 -14 -5 -26 -8 -28 -6 -2 2 -20 47 -39 102 -36 99 -36 120
1 113 12 -2 24 -21 35 -57 16 -56 29 -51 29 10 0 41 17 69 41 69 17 0 20 -5
16 -22z m-615 -10 c25 -21 30 -59 8 -65 -18 -5 -18 -6 2 -33 34 -46 3 -120
-49 -120 -29 0 -73 42 -73 70 0 28 36 26 61 -2 l18 -23 1 23 c0 12 -5 22 -10
22 -21 0 -60 49 -60 76 0 53 61 84 102 52z m138 -87 c0 -44 5 -83 10 -86 16
-10 30 41 30 106 0 56 1 59 25 59 24 0 25 -2 25 -74 0 -122 -28 -165 -97 -147
-36 9 -52 52 -52 142 -1 73 2 79 36 79 22 0 23 -3 23 -79z m282 54 c8 -19 8
-35 0 -64 -10 -31 -9 -45 3 -74 21 -50 19 -57 -13 -57 -25 0 -31 6 -43 43
l-14 42 -3 -42 c-3 -40 -5 -43 -33 -43 l-29 0 0 110 0 110 60 0 c55 0 62 -2
72 -25z"/>
<path d="M720 2102 c0 -4 14 -22 31 -40 l30 -33 19 23 c10 13 18 23 17 24 -14
9 -97 31 -97 26z"/>
<path d="M2174 2145 c10 -15 28 -44 40 -64 l21 -36 3 33 c4 38 -3 49 -50 77
l-33 19 19 -29z"/>
<path d="M2554 2110 c-12 -5 -25 -13 -28 -19 -4 -7 -1 -8 8 -5 9 3 23 -1 31
-10 24 -23 60 -20 78 8 15 23 15 24 -6 30 -30 8 -58 7 -83 -4z"/>
<path d="M2057 2063 c-19 -18 -3 -83 21 -83 8 0 12 -3 9 -7 -8 -8 12 -33 26
-33 6 0 2 7 -9 16 -18 15 -18 15 11 9 l30 -6 -35 31 c-19 17 -28 28 -20 24 10
-5 9 0 -4 14 -22 25 -10 29 20 7 10 -8 22 -15 25 -15 10 0 6 35 -5 42 -14 10
-60 10 -69 1z"/>
<path d="M2560 2040 c8 -5 20 -10 25 -10 6 0 3 5 -5 10 -8 5 -19 10 -25 10 -5
0 -3 -5 5 -10z"/>
<path d="M2025 1900 c11 -5 36 -16 55 -24 35 -14 34 -14 -30 -9 -73 7 -75 -2
-3 -23 l48 -14 -60 6 c-33 3 -71 7 -85 10 -14 2 9 -8 50 -23 l75 -27 -84 -13
c-106 -17 -129 -28 -74 -37 59 -10 272 -13 267 -4 -3 4 -22 9 -42 9 -27 1 -31
3 -12 6 37 7 45 20 16 27 -14 3 -26 13 -26 21 0 21 48 19 90 -4 27 -14 41 -16
60 -8 24 9 23 10 -20 22 -25 7 -38 14 -30 14 8 1 2 8 -15 17 l-30 14 40 -4
c39 -5 39 -5 15 9 -14 8 -35 14 -48 15 -13 0 -21 4 -17 9 3 5 0 13 -6 17 -8 4
-9 3 -5 -4 5 -8 0 -12 -13 -12 -11 0 -23 5 -26 10 -3 6 -30 10 -58 9 -39 0
-47 -3 -32 -9z"/>
<path d="M2244 1895 c22 -17 40 -20 32 -6 -3 5 -16 11 -28 14 -22 6 -22 5 -4
-8z"/>
<path d="M865 1591 c-3 -6 17 -21 45 -34 47 -23 50 -23 50 -6 0 14 -7 19 -29
19 -16 0 -31 6 -35 15 -6 17 -22 20 -31 6z"/>
<path d="M1030 1574 c0 -12 9 -14 42 -12 59 4 63 28 4 28 -35 0 -46 -4 -46
-16z"/>
<path d="M1191 1576 c-7 -8 -11 -36 -9 -63 2 -37 7 -49 21 -51 12 -3 20 4 24
18 5 18 11 21 34 16 28 -5 29 -4 29 33 0 36 -2 38 -26 33 -18 -3 -30 0 -36 12
-11 20 -22 20 -37 2z"/>
<path d="M1540 1570 c0 -15 5 -20 18 -18 9 2 17 10 17 18 0 8 -8 16 -17 18
-13 2 -18 -3 -18 -18z"/>
<path d="M1621 1526 c-10 -12 -9 -21 3 -43 l15 -28 1 43 c0 46 -2 49 -19 28z"/>
<path d="M1030 1480 c0 -17 7 -20 46 -20 38 0 45 3 40 16 -3 9 -6 18 -6 20 0
2 -18 4 -40 4 -33 0 -40 -3 -40 -20z"/>
<path d="M2180 1586 c0 -8 12 -17 28 -21 15 -3 37 -16 50 -27 l22 -21 0 26 c0
24 -4 27 -34 27 -21 0 -36 6 -40 15 -7 19 -26 20 -26 1z"/>
<path d="M2340 1575 c0 -11 12 -15 45 -15 33 0 45 4 45 15 0 11 -12 15 -45 15
-33 0 -45 -4 -45 -15z"/>
<path d="M2500 1569 c0 -25 33 -22 38 4 2 12 -3 17 -17 17 -15 0 -21 -6 -21
-21z"/>
<path d="M2910 1571 c-11 -22 -13 -71 -4 -95 9 -23 41 -20 49 5 5 16 12 19 31
15 22 -6 24 -4 24 34 0 37 -1 39 -23 31 -18 -7 -26 -5 -35 10 -15 24 -29 24
-42 0z"/>
<path d="M3080 1575 c0 -11 11 -15 40 -15 38 0 40 -2 40 -30 0 -28 -2 -30 -40
-30 -33 0 -40 -3 -40 -20 0 -17 7 -20 40 -20 29 0 40 4 40 15 0 24 57 20 65
-5 8 -24 30 -26 39 -4 4 11 -4 19 -28 29 -45 19 -66 41 -66 71 0 22 -4 24 -45
24 -33 0 -45 -4 -45 -15z"/>
<path d="M2340 1480 c0 -17 7 -20 45 -20 38 0 45 3 45 20 0 17 -7 20 -45 20
-38 0 -45 -3 -45 -20z"/>
<path d="M671 896 c-7 -8 -8 -17 -3 -20 6 -3 13 1 16 10 9 23 2 28 -13 10z"/>
<path d="M3160 600 c0 -19 3 -21 12 -12 9 9 9 15 0 24 -9 9 -12 7 -12 -12z"/>
<path d="M1770 282 c0 -5 7 -13 16 -16 10 -4 14 -1 12 6 -5 15 -28 23 -28 10z"/>
<path d="M2166 255 c4 -9 11 -14 16 -13 15 5 11 23 -6 26 -11 2 -14 -2 -10
-13z"/>
<path d="M2433 2853 c3 -5 0 -32 -7 -60 l-13 -50 54 -13 c30 -6 56 -10 58 -8
9 9 33 108 27 111 -4 3 -25 7 -47 11 -22 4 -48 10 -59 13 -10 3 -16 1 -13 -4z"/>
<path d="M1950 2731 c-6 -23 -9 -45 -7 -48 3 -2 19 -3 35 -1 l30 3 -23 45 -23
45 -12 -44z"/>
</g>
</svg>
